<svg width="963" height="1259" xmlns="http://www.w3.org/2000/svg" xmlns:xlink="http://www.w3.org/1999/xlink" xml:space="preserve" overflow="hidden"><g transform="translate(-1237 -178)"><rect x="1237" y="607" width="963" height="750"/><path d="M1237 1142.83C1237 1110.34 1263.34 1084 1295.83 1084L2141.17 1084C2173.66 1084 2200 1110.34 2200 1142.83L2200 1378.17C2200 1410.66 2173.66 1437 2141.17 1437L1295.83 1437C1263.34 1437 1237 1410.66 1237 1378.17Z" fill-rule="evenodd"/><path d="M1237 587 1718.5 178 2200 587Z" fill-rule="evenodd"/><rect x="1795" y="975" width="280" height="417" fill="#FFFFFF"/><path d="M1795 1273.67C1795 1255.63 1809.63 1241 1827.67 1241L2042.33 1241C2060.37 1241 2075 1255.63 2075 1273.67L2075 1404.33C2075 1422.37 2060.37 1437 2042.33 1437L1827.67 1437C1809.63 1437 1795 1422.37 1795 1404.33Z" fill="#FFFFFF" fill-rule="evenodd"/></g></svg>